<svg width="18px" height="18px" viewBox="0 0 16 18" fill="none" xmlns="http://www.w3.org/2000/svg">
<path d="M13.025 9.3C12.815 9.18 12.5975 9.0825 12.38 9C12.5975 8.9175 12.815 8.82 13.025 8.7C14.465 7.8675 15.2675 6.36 15.275 4.8075C13.9325 4.035 12.2225 3.975 10.775 4.8075C10.565 4.9275 10.37 5.07 10.19 5.2125C10.2275 4.98 10.25 4.74 10.25 4.5C10.25 2.835 9.3425 1.3875 8 0.607498C6.6575 1.3875 5.75 2.835 5.75 4.5C5.75 4.74 5.7725 4.98 5.81 5.2125C5.63 5.0625 5.435 4.92 5.225 4.8C3.785 3.9675 2.075 4.0275 0.724998 4.8C0.724998 6.3525 1.5275 7.86 2.975 8.6925C3.185 8.8125 3.4025 8.91 3.62 8.9925C3.4025 9.075 3.185 9.1725 2.975 9.2925C1.535 10.125 0.732498 11.6325 0.724998 13.185C2.0675 13.9575 3.7775 14.0175 5.225 13.185C5.435 13.065 5.63 12.9225 5.81 12.78C5.7725 13.02 5.75 13.26 5.75 13.5C5.75 15.165 6.6575 16.6125 8 17.3925C9.3425 16.6125 10.25 15.165 10.25 13.5C10.25 13.26 10.2275 13.02 10.19 12.7875C10.37 12.9375 10.565 13.0725 10.775 13.1925C12.215 14.025 13.925 13.965 15.275 13.1925C15.2675 11.64 14.465 10.1325 13.025 9.3V9.3ZM8 12C6.3425 12 5 10.6575 5 9C5 7.3425 6.3425 6 8 6C9.6575 6 11 7.3425 11 9C11 10.6575 9.6575 12 8 12Z" fill="#FF0000"/>
</svg>
